# xmcd
#
# Track frame offsets: 
#        150
#        12725
#        25792
#        40592
#        57045
#        71032
#        83577
#        99887
#        115227
#        130750
#        145177
#
# Disc length: 2155 seconds
#
# Revision: 3
# Processed by: cddbd v1.5.1PL0 Copyright (c) Steve Scherf et al.
# Submitted via: ExactAudioCopy v0.95a3
#
DISCID=8608690b
DTITLE=Clay Walker - Hypnotize The Moon
DYEAR=1995
DGENRE=Country
TTITLE0=Who Needs You Baby
TTITLE1=I Won't Have The Heart
TTITLE2=Let Me Take The Heartache (Off Your Hands)
TTITLE3=Hypnotize The Moon
TTITLE4=Hand Me Down Heart
TTITLE5=Only On Days That End In ''Y''
TTITLE6=Where Were You
TTITLE7=Loving You Comes Naturally To Me
TTITLE8=Bury The Shovel
TTITLE9=A Cowboy's Toughest Ride
TTITLE10=Love Me Like You Love Me
EXTD=YEAR: 1995
EXTT0=
EXTT1=
EXTT2=
EXTT3=
EXTT4=
EXTT5=
EXTT6=
EXTT7=
EXTT8=
EXTT9=
EXTT10=
PLAYORDER=
